<svg width="75" height="73" viewBox="0 0 75 73" fill="none" xmlns="http://www.w3.org/2000/svg">
<g clip-path="url(#clip0_14_313)">
<path d="M29.3167 73H3.58934C1.61031 73 0 71.3863 0 69.4032V3.59684C0 1.61368 1.61031 0 3.58934 0H29.3167C31.2958 0 32.9061 1.61368 32.9061 3.59684V69.4032C32.9061 71.3863 31.2958 73 29.3167 73ZM3.58934 1.73433C2.56597 1.73433 1.73071 2.57133 1.73071 3.59684V69.4032C1.73071 70.4287 2.56597 71.2657 3.58934 71.2657H29.3167C30.3401 71.2657 31.1754 70.4287 31.1754 69.4032V3.59684C31.1754 2.57133 30.3401 1.73433 29.3167 1.73433H3.58934Z" fill="#E5E4F9"/>
<path d="M72.0352 64.6298H56.6544C56.1729 64.6298 55.7891 64.2377 55.7891 63.7627C55.7891 63.2876 56.1729 62.8955 56.6544 62.8955H72.0352C72.72 62.8955 73.2768 62.3375 73.2768 61.6513V11.3408C73.2768 10.6546 72.72 10.0966 72.0352 10.0966H56.8877C56.4061 10.0966 56.0224 9.70452 56.0224 9.22947C56.0224 8.75441 56.4061 8.3623 56.8877 8.3623H72.0352C73.6756 8.3623 75.0075 9.69698 75.0075 11.3408V61.6589C75.0075 63.3027 73.6756 64.6374 72.0352 64.6374V64.6298Z" fill="#E5E4F9"/>
<path d="M60.9511 37.3632H32.0407C31.5592 37.3632 31.1754 36.9711 31.1754 36.4961C31.1754 36.021 31.5592 35.6289 32.0407 35.6289H60.9511C61.4327 35.6289 61.8165 36.021 61.8165 36.4961C61.8165 36.9711 61.4327 37.3632 60.9511 37.3632Z" fill="#E5E4F9"/>
<path d="M46.8045 51.7959C46.5862 51.7959 46.3605 51.7129 46.1949 51.5395C45.8563 51.2002 45.8563 50.6497 46.1949 50.3104L59.9804 36.4961L46.1949 22.6818C45.8563 22.3425 45.8563 21.7921 46.1949 21.4527C46.5336 21.1134 47.0829 21.1134 47.4215 21.4527L61.8165 35.8778C61.982 36.0437 62.0723 36.2624 62.0723 36.4886C62.0723 36.7148 61.982 36.941 61.8165 37.0994L47.4215 51.5244C47.2559 51.6903 47.0302 51.7808 46.812 51.7808L46.8045 51.7959Z" fill="#E5E4F9"/>
</g>
<defs>
<clipPath id="clip0_14_313">
<rect width="75" height="73" fill="white"/>
</clipPath>
</defs>
</svg>
