<svg width="55" height="82" viewBox="0 0 55 82" fill="none" xmlns="http://www.w3.org/2000/svg">
<g clip-path="url(#clip0_14_310)">
<path fill-rule="evenodd" clip-rule="evenodd" d="M20.4184 9.91656C17.2451 9.91656 14.67 12.6151 14.67 15.8483V42.4241C14.67 42.4743 14.67 42.516 14.67 42.5745V54.4631L12.9255 51.5139L10.6411 47.7293C9.29541 45.4819 7.16884 44.4042 5.1918 44.3958C4.30296 44.3875 3.41412 44.6047 2.64158 45.0224C1.42877 45.6741 0.448558 46.8688 0.124588 48.3559C-0.207688 49.8513 0.0913607 51.5891 1.18787 53.4187L17.8681 81.2227L17.9014 81.2561C18.2835 81.9161 18.433 81.9913 19.2055 81.9997H50.7635C53.0894 81.9997 55 80.0113 55 77.647V38.8735C55 35.6402 52.4332 32.9417 49.2516 32.9417C48.2631 32.9417 47.3327 33.2341 46.4937 33.7187L45.4554 34.2868L45.0982 33.184C44.3588 30.803 42.1824 29.0151 39.6156 29.0151C38.7102 29.0151 37.8462 29.2323 37.0986 29.6083L35.8277 30.2348L35.7363 28.8062C35.5369 25.7568 33.0615 23.2922 30.0211 23.2922C29.1323 23.2922 28.285 23.5094 27.5291 23.8854L26.1667 24.5705V15.8399C26.1667 12.6067 23.5916 9.9082 20.4184 9.9082V9.91656ZM20.4184 11.8214C22.5283 11.8214 24.2728 13.626 24.2728 15.8483V45.4318C24.2644 45.8913 24.8376 46.4176 25.3693 46.3842C25.7265 46.3675 25.8677 46.284 25.9591 46.1753C26.0587 46.0667 26.1667 45.8412 26.1667 45.3984V29.1905C26.1667 26.9766 27.9195 25.197 30.0211 25.197C32.1228 25.197 33.8755 26.9766 33.8755 29.1905V45.3984C33.8755 46.3174 34.3241 46.5012 34.8225 46.5012C35.0717 46.5012 35.3126 46.3926 35.4705 46.2338C35.6283 46.0751 35.7695 45.8579 35.7695 45.3984V34.9385C35.7695 32.7329 37.4973 30.9116 39.6239 30.9116C41.7505 30.9116 43.4783 32.7245 43.4783 34.9385V45.3984C43.4783 45.8328 43.6112 46.025 43.7774 46.1753C43.9352 46.3257 44.1761 46.4176 44.4253 46.4176C44.6828 46.4176 44.9154 46.3341 45.0732 46.1753C45.2394 46.025 45.3723 45.8161 45.3723 45.3984V38.8735C45.3723 36.6511 47.1334 34.8466 49.2516 34.8466C51.3699 34.8466 53.106 36.6595 53.106 38.8735V77.6386C53.106 78.9837 52.0344 80.0781 50.7635 80.0781H19.4132L19.1474 79.627L2.84925 52.4663C1.9438 50.9542 1.78597 49.6675 1.99364 48.7402C2.19301 47.8463 2.7828 47.1194 3.53042 46.71C4.28635 46.3007 5.27487 46.1002 6.28831 46.3842C7.30175 46.6683 8.25705 47.4202 9.01297 48.6817L14.6451 58.0722L14.6783 58.1057C14.9856 58.6403 15.401 58.7155 15.8329 58.6153C16.2649 58.5067 16.5723 58.256 16.5723 57.7548V15.8483C16.5723 13.6343 18.3084 11.8214 20.4267 11.8214H20.4184Z" fill="#E5E4F9"/>
<path fill-rule="evenodd" clip-rule="evenodd" d="M20.4682 0C28.4013 0 34.8558 6.49985 34.8558 14.4785C34.8558 15.4977 34.7561 16.4835 34.5567 17.4443C34.5318 17.5696 34.482 17.6866 34.4155 17.7869C34.349 17.8871 34.2577 17.979 34.1497 18.0542C34.05 18.121 33.9254 18.1712 33.8091 18.1962C33.6845 18.2213 33.5599 18.2213 33.4353 18.1962C33.3107 18.1712 33.1944 18.121 33.0947 18.0542C32.995 17.9874 32.9036 17.8871 32.8372 17.7869C32.7707 17.6866 32.7209 17.5613 32.696 17.436C32.6711 17.3106 32.6794 17.1853 32.696 17.0684C32.8704 16.2329 32.9618 15.3724 32.9618 14.4868C32.9618 7.53581 27.3796 1.91319 20.4682 1.91319C13.5569 1.91319 7.97463 7.53581 7.97463 14.4868C7.97463 17.2772 8.87177 19.8504 10.4002 21.9224V21.9391C10.4833 22.0393 10.5415 22.1563 10.5747 22.2733C10.6079 22.3902 10.6162 22.5239 10.5996 22.6492C10.583 22.7745 10.5415 22.8998 10.475 23.0001C10.4085 23.1004 10.3255 23.2006 10.2258 23.2758C10.1261 23.351 10.0098 23.4095 9.88521 23.4345C9.76892 23.468 9.63601 23.468 9.5114 23.4512C9.3868 23.4345 9.2705 23.3844 9.16251 23.3176C9.05452 23.2507 8.96315 23.1588 8.88839 23.0586V23.0419C7.12732 20.6441 6.08896 17.6699 6.08896 14.4701C6.07235 6.5082 12.5268 0 20.4599 0H20.4682Z" fill="#E5E4F9"/>
</g>
<defs>
<clipPath id="clip0_14_310">
<rect width="55" height="82" fill="white"/>
</clipPath>
</defs>
</svg>
