<svg width="73" height="73" viewBox="0 0 73 73" fill="none" xmlns="http://www.w3.org/2000/svg">
<path d="M21.4226 41.6412C23.5184 41.6412 25.5602 40.9491 27.213 39.6775L13.9252 26.479C10.7221 30.5888 11.4891 36.512 15.6267 39.6936C17.2958 40.9437 19.3213 41.6412 21.4171 41.6412H21.4226Z" fill="#3E389F"/>
<path d="M60.9511 32.2198C60.9511 30.1381 60.2543 28.11 58.9742 26.4683L45.6863 39.6668C49.8239 42.8484 55.771 42.0865 58.9742 37.9768C60.2543 36.335 60.9511 34.3069 60.9511 32.2252V32.2198Z" fill="#3E389F"/>
<path d="M67.6491 17.8516L61.7722 23.689C66.5093 29.3225 65.7585 37.7191 60.0869 42.4244C55.1121 46.5557 47.8902 46.5557 42.9154 42.4244L36.4605 48.8359L30.0219 42.4405C24.3502 47.1459 15.8968 46.4001 11.1596 40.7666C7.0004 35.8252 7.0004 28.6518 11.1596 23.7104L8.14555 20.7166L5.2827 17.8569C1.82571 23.5119 0 30.0092 0 36.6246C0 56.6263 16.3235 72.8401 36.4605 72.8401C56.5975 72.8401 72.921 56.6263 72.921 36.6246C72.9372 30.0092 71.1007 23.5066 67.6545 17.8569L67.6491 17.8516Z" fill="#3E389F"/>
<path d="M62.8255 11.6216C48.9381 -2.84849 25.8734 -3.39038 11.3055 10.4037C10.8787 10.8115 10.4682 11.2139 10.0793 11.6216C9.17723 12.5713 8.3238 13.5531 7.52437 14.5833L36.4551 43.3357L65.3858 14.5833C64.6026 13.5531 63.7329 12.5713 62.8309 11.6216H62.8255ZM36.4497 5.14039C44.9679 5.14039 52.9082 8.40784 58.8715 14.3633L36.4497 36.6345L14.0278 14.3633C19.9911 8.40784 27.9314 5.14039 36.4497 5.14039Z" fill="#3E389F"/>
</svg>
