<svg width="73" height="73" viewBox="0 0 73 73" fill="none" xmlns="http://www.w3.org/2000/svg">
<path d="M28.7849 65.2113C40.4468 65.2113 49.8942 55.8274 49.8942 44.2438C49.8942 32.6602 40.4468 23.2764 28.7849 23.2764C17.1229 23.2764 7.67562 32.6602 7.67562 44.2438C7.67562 55.8274 17.1229 65.2113 28.7849 65.2113ZM28.7849 72.8353C12.8881 72.8353 0 60.0338 0 44.2438C0 28.4539 12.8881 15.6523 28.7849 15.6523C44.6816 15.6523 57.5698 28.4539 57.5698 44.2438C57.5698 60.0338 44.6816 72.8353 28.7849 72.8353Z" fill="#E5E4F9"/>
<path d="M44.1361 49.9623C55.7981 49.9623 65.2454 40.5784 65.2454 28.9948C65.2454 17.4112 55.7981 8.02736 44.1361 8.02736C32.4742 8.02736 23.0268 17.4112 23.0268 28.9948C23.0268 40.5784 32.4742 49.9623 44.1361 49.9623ZM44.1361 57.5863C28.2394 57.5863 15.3512 44.7848 15.3512 28.9948C15.3512 13.2048 28.2394 0.40332 44.1361 0.40332C60.0329 0.40332 72.921 13.2048 72.921 28.9948C72.921 44.7848 60.0329 57.5863 44.1361 57.5863Z" fill="#615CB0"/>
<path d="M45.0868 57.5867C47.08 55.1831 48.5114 52.3717 49.2676 49.3457C52.3087 48.5892 55.1391 47.1727 57.5644 45.1929C57.4564 48.6911 56.6947 52.141 55.3227 55.3708C52.0764 56.7283 48.6086 57.4848 45.0814 57.5921L45.0868 57.5867ZM23.648 23.8929C20.6069 24.6494 17.7765 26.0658 15.3512 28.0456C15.4593 24.5474 16.2209 21.0976 17.5929 17.8731C20.8392 16.5157 24.3178 15.7592 27.8342 15.6465C25.841 18.0501 24.4096 20.8615 23.6534 23.8875L23.648 23.8929Z" fill="#3E389F"/>
</svg>
