<svg width="73" height="73" viewBox="0 0 73 73" fill="none" xmlns="http://www.w3.org/2000/svg">
<path d="M25.5223 38.4805V49.5705L36.4605 55.9068L47.3986 49.5705V38.4805L36.4605 44.8168L25.5223 38.4805Z" fill="#3E389F"/>
<path d="M35.0939 31.4629L26.8943 36.2165L35.0939 40.9701V31.4629Z" fill="#3E389F"/>
<path d="M25.5223 24.4448V33.9521L33.7273 29.1984L25.5223 24.4448Z" fill="#3E389F"/>
<path d="M37.8325 40.9701L46.032 36.2165L37.8325 31.4629V40.9701Z" fill="#3E389F"/>
<path d="M47.3987 33.9521V24.4448L39.1991 29.1984L47.3987 33.9521Z" fill="#3E389F"/>
<path d="M26.8943 22.1814L36.4605 27.6164L46.0321 22.1814L36.4605 16.5264L26.8943 22.1814Z" fill="#3E389F"/>
<path d="M36.4605 0C16.3235 0 0 16.2138 0 36.2155C0 56.2172 16.3235 72.431 36.4605 72.431C56.5975 72.431 72.921 56.2172 72.921 36.2155C72.921 16.2138 56.5975 0 36.4605 0ZM50.1318 50.9271L36.4605 58.6209L22.7892 50.9271V21.2786L36.4605 13.5848L50.1318 21.2786V50.9324V50.9271Z" fill="#3E389F"/>
</svg>
