<svg width="72" height="72" viewBox="0 0 72 72" fill="none" xmlns="http://www.w3.org/2000/svg">
<path d="M47.6201 29.9614H44.4116L43.3961 34.7279H46.4641C47.2204 34.7279 47.8631 34.5291 48.4195 34.1153C48.9921 33.7015 49.3594 33.1212 49.5484 32.3527C49.6078 32.0572 49.6349 31.7831 49.6349 31.5574C49.6349 31.0469 49.4782 30.6493 49.1757 30.3806C48.8786 30.0958 48.3493 29.9561 47.6201 29.9561V29.9614Z" fill="#3E389F"/>
<path d="M28.2339 29.8057C27.2346 29.8057 26.3812 30.1007 25.6682 30.6856C24.9714 31.265 24.469 32.161 24.172 33.3789C23.8425 34.57 23.5292 36.0133 23.1997 37.7409C23.1295 38.095 23.0863 38.4652 23.0863 38.8622C23.07 40.504 23.9397 41.3141 25.652 41.3141C26.6513 41.3141 27.4939 41.0191 28.1907 40.4342C28.9037 39.8548 29.4169 38.9588 29.7194 37.7409C30.1353 36.0669 30.4486 34.6237 30.6592 33.3789C30.7294 33.0087 30.7727 32.6278 30.7727 32.2308C30.7727 30.6158 29.93 29.8057 28.2339 29.8057Z" fill="#3E389F"/>
<path d="M35.6665 0.303711C15.967 0.303711 0 16.1634 0 35.7305C0 55.2977 15.967 71.1574 35.6665 71.1574C55.3659 71.1574 71.3329 55.2977 71.3329 35.7305C71.3329 16.1634 55.3659 0.303711 35.6665 0.303711ZM35.6233 33.3054C35.3532 34.8775 35.0399 36.4227 34.651 37.9088C34.0244 40.3339 32.9549 42.1581 31.41 43.3653C29.8814 44.5564 27.8288 45.1358 25.2631 45.1358C23.1349 45.1358 21.3956 44.6422 20.0398 43.6497C18.7002 42.641 18.0304 41.1977 18.0304 39.3414C18.0304 38.9443 18.0736 38.4776 18.16 37.9088C18.3869 36.6319 18.7164 35.1028 19.1431 33.3054C20.3531 28.4284 23.4968 25.9926 28.5472 25.9926C29.9192 25.9926 31.1562 26.2179 32.2419 26.6847C33.3276 27.1247 34.181 27.806 34.8076 28.7128C35.4342 29.6034 35.7475 30.6657 35.7475 31.8997C35.7475 32.2699 35.7043 32.7367 35.6179 33.3001L35.6233 33.3054ZM54.5125 32.4148C54.0696 34.4536 53.1729 35.9559 51.8009 36.9377C50.4613 37.9142 48.6194 38.3971 46.2805 38.3971H42.6723L41.4461 44.2237C41.4029 44.4223 41.3165 44.5779 41.149 44.7066C40.9924 44.8354 40.8195 44.889 40.6359 44.889H37.0006C36.8008 44.889 36.6604 44.83 36.5415 44.7066C36.4551 44.5671 36.4281 44.4115 36.4551 44.2237L40.1498 26.9369C40.1768 26.7384 40.2794 26.5828 40.4468 26.454C40.6035 26.3252 40.7763 26.2716 40.96 26.2716H48.0792C50.0616 26.2716 51.6443 26.6847 52.8434 27.4895C54.0534 28.3104 54.6691 29.4854 54.6691 31.0306C54.6691 31.4705 54.6097 31.9373 54.5125 32.4202V32.4148Z" fill="#3E389F"/>
</svg>
