<svg width="73" height="72" viewBox="0 0 73 72" fill="none" xmlns="http://www.w3.org/2000/svg">
<path d="M57.2536 0.272952C48.5693 0.267635 41.5235 7.17475 41.5019 15.7089V32.8252C39.8796 32.9315 38.2196 33.0007 36.5 33.0007C34.7804 33.0007 33.1312 33.0698 31.4981 33.1655V15.7089C31.3576 7.15348 24.1927 0.331448 15.4976 0.469696C6.99719 0.602628 0.135185 7.35022 0 15.7089V56.6146C0.140593 65.17 7.30541 71.9921 16.0005 71.8538C24.501 71.7209 31.363 64.9733 31.4981 56.6146V39.4983C33.1204 39.392 34.7804 39.3229 36.5 39.3229C38.2196 39.3229 39.8688 39.2537 41.5019 39.158V56.6146C41.6424 65.17 48.8073 71.9921 57.5024 71.8538C66.0028 71.7209 72.8648 64.9733 73 56.6146V15.7089C72.9784 7.17475 65.9325 0.267635 57.2536 0.272952ZM15.7518 6.60048C20.878 6.60048 25.0363 10.6735 25.0471 15.7143V33.8408C20.44 34.4948 15.941 35.7497 11.6638 37.5629C9.80904 38.3605 8.06785 39.3867 6.47267 40.6097V15.7143C6.48348 10.6841 10.6364 6.6058 15.7518 6.60048ZM25.0471 56.6199C25.0471 61.666 20.8888 65.7603 15.7572 65.7656C10.6256 65.7656 6.46185 61.6766 6.45645 56.6305V52.5203C6.45645 48.8939 9.37645 45.4643 14.2702 43.3268C17.7201 41.8645 21.3376 40.8223 25.0471 40.2268V56.6252V56.6199ZM57.2536 65.7337C52.1274 65.7337 47.9691 61.6607 47.9583 56.6199V38.4934C52.5654 37.8394 57.0644 36.5845 61.3416 34.7713C63.1964 33.9737 64.9375 32.9475 66.5327 31.7245V56.6146C66.5219 61.6447 62.369 65.723 57.2536 65.7284V65.7337ZM58.7353 28.9915C55.2853 30.4537 51.6678 31.4959 47.9583 32.0914V15.7143C47.9583 10.6682 52.1166 6.5739 57.2482 6.56858C62.3798 6.56858 66.5436 10.6575 66.549 15.7036V19.8139C66.549 23.4243 63.629 26.8592 58.7353 28.9861V28.9915Z" fill="#3E389F"/>
</svg>
