<svg width="65" height="73" viewBox="0 0 65 73" fill="none" xmlns="http://www.w3.org/2000/svg">
<path d="M40.6521 33.1519L45.9996 24.1383L60.4164 46.447V50.7285L60.3786 21.2732C60.3462 20.5543 59.9573 19.8944 59.3469 19.5081L33.387 4.67849C32.7821 4.3834 32.0096 4.3834 31.4047 4.68922C31.3236 4.73214 31.248 4.77506 31.1724 4.82335L31.0806 4.88237L5.88232 19.3847L5.7851 19.4276C5.66086 19.4866 5.53123 19.5564 5.41239 19.6422C4.93705 19.9802 4.61834 20.4846 4.51571 21.0479C4.49951 21.1337 4.48871 21.2196 4.48331 21.3108L4.52112 45.315L17.9494 24.6373C19.6401 21.8956 23.3239 21.0103 26.7431 21.0586L30.7565 21.1659L7.10845 58.8408L9.89568 60.4343L33.83 21.2035L44.4062 21.1659L20.5367 61.3839L30.4864 67.0657L31.6747 67.7471C32.1771 67.951 32.7712 67.9617 33.279 67.7793L59.6008 52.6278L54.5665 55.5251L40.6467 33.1627L40.6521 33.1519ZM42.6939 62.3497L32.647 46.6885L38.7778 36.3496L51.9738 57.0059L42.6939 62.3497Z" fill="#3E389F"/>
<path d="M32.647 46.6826L42.6939 62.3492L51.9738 57.0054L38.7778 36.3491L32.647 46.6826Z" fill="#E5E4F9"/>
<path d="M60.4272 50.723V46.4416L45.9996 24.1328L40.6521 33.1464L54.5719 55.5089L59.6062 52.6116C60.0977 52.2146 60.4002 51.6298 60.4272 50.9967V50.7177V50.723Z" fill="#E5E4F9"/>
<path d="M0.00543213 54.7577L7.11386 58.8246L30.7619 21.1497L26.7485 21.0424C23.3294 20.9941 19.6455 21.8794 17.9548 24.621L4.52653 45.2987L0.010839 52.1931V54.7577H0.00543213Z" fill="white"/>
<path d="M44.4116 21.1548L33.8353 21.1923L9.90106 60.4231L18.2681 65.2036L20.5421 61.3728L44.4116 21.1548Z" fill="white"/>
<path d="M64.8835 21.1002C64.797 18.9005 63.5979 16.8885 61.7182 15.7189L35.418 0.696143C33.5599 -0.232048 31.2426 -0.232048 29.3845 0.696143C29.163 0.808813 3.80809 15.4131 3.80809 15.4131C3.45699 15.5794 3.1167 15.7779 2.80341 16.0032C1.12893 17.1943 0.108031 19.0507 0 21.0841V52.1973L4.51569 45.3029L4.47788 21.2987C4.48328 21.2129 4.49408 21.1271 4.51028 21.0412C4.61291 20.4779 4.93162 19.9735 5.40696 19.6301C5.52579 19.5443 31.3128 4.72009 31.3992 4.67717C32.0042 4.37671 32.7766 4.37135 33.3816 4.66644L59.3415 19.496C59.9572 19.8823 60.3408 20.5422 60.3732 21.2612V50.9955C60.3408 51.6286 60.0923 52.208 59.5954 52.6104L54.5611 55.5076L51.963 57.0046L42.6831 62.3484L33.2682 67.7673C32.7604 67.9497 32.1663 67.9389 31.6639 67.7351L20.5259 61.3719L18.2518 65.2027L28.2609 70.9274C28.5904 71.1152 28.8875 71.2815 29.1306 71.4156C29.5033 71.6249 29.7626 71.7644 29.849 71.8073C30.562 72.1507 31.5829 72.3492 32.5065 72.3492C33.3546 72.3492 34.1756 72.1936 34.9588 71.8932L62.2961 56.1676C63.868 54.9604 64.7862 53.1362 64.8727 51.1672V21.1002H64.8835Z" fill="#EFEFFB"/>
</svg>
