<svg width="73" height="65" viewBox="0 0 73 65" fill="none" xmlns="http://www.w3.org/2000/svg">
<path d="M55.2704 20.0521C53.9349 19.2849 52.2209 19.2849 50.6961 20.0521L40.0227 26.3798L32.7827 30.406L22.2985 36.7337C20.963 37.5009 19.2489 37.5009 17.7242 36.7337L9.52714 31.7499C8.19161 30.9827 7.23999 29.4484 7.23999 27.7237V18.1369C7.23999 16.6026 8.00237 15.0683 9.52714 14.1107L17.7242 9.31733C19.0597 8.55017 20.7737 8.55017 22.2985 9.31733L30.4955 14.3011C31.831 15.0683 32.7827 16.6026 32.7827 18.3274V24.655L40.0227 20.4384V13.9203C40.0227 12.386 39.2603 10.8516 37.7355 9.89406L22.4877 0.878591C21.1522 0.111433 19.4382 0.111433 17.9134 0.878591L2.28717 10.0845C0.762394 10.8516 0 12.386 0 13.9203V31.9458C0 33.4801 0.762394 35.0144 2.28717 35.972L17.7242 44.9874C19.0597 45.7546 20.7737 45.7546 22.2985 44.9874L32.7827 38.8502L40.0227 34.6335L50.5069 28.4963C51.8424 27.7291 53.5564 27.7291 55.0812 28.4963L63.2782 33.2896C64.6137 34.0568 65.5654 35.5911 65.5654 37.3159V46.9026C65.5654 48.4369 64.803 49.9712 63.2782 50.9288L55.2758 55.7222C53.9403 56.4894 52.2263 56.4894 50.7015 55.7222L42.5045 50.9288C41.1689 50.1617 40.2173 48.6274 40.2173 46.9026V40.7654L32.9773 44.982V51.3097C32.9773 52.844 33.7397 54.3783 35.2645 55.3359L50.7015 64.3514C52.037 65.1185 53.7511 65.1185 55.2758 64.3514L70.7129 55.3359C72.0484 54.5688 73 53.0344 73 51.3097V33.0883C73 31.554 72.2376 30.0197 70.7129 29.0621L55.2758 20.0467L55.2704 20.0521Z" fill="#3E389F"/>
</svg>
