<svg width="73" height="73" viewBox="0 0 73 73" fill="none" xmlns="http://www.w3.org/2000/svg">
<path fill-rule="evenodd" clip-rule="evenodd" d="M73 36.6152C73 56.6573 56.6588 72.9038 36.5 72.9038C16.3412 72.9038 0 56.6573 0 36.6152C0 16.5732 16.3412 0.32666 36.5 0.32666C56.6588 0.32666 73 16.5732 73 36.6152ZM26.1556 51.0554H19.0719C17.5849 51.0554 16.8495 51.0554 16.4007 50.7705C15.914 50.4586 15.622 49.9425 15.5842 49.3727C15.5571 48.8458 15.9248 48.2061 16.6602 46.9212L34.1532 16.2721C34.8994 14.9711 35.2725 14.3206 35.7484 14.0787C36.2621 13.8206 36.8677 13.8206 37.3814 14.0787C37.8573 14.3206 38.2358 14.9711 38.9766 16.2721L42.5725 22.5138L42.5887 22.546C43.3944 23.9438 43.8 24.6481 43.9785 25.3953C44.1731 26.2071 44.1731 27.0619 43.9785 27.8737C43.8 28.621 43.3944 29.336 42.5779 30.7553L33.3907 46.8997L33.3691 46.9427C32.558 48.3512 32.1525 49.0662 31.5793 49.6038C30.9628 50.1898 30.2166 50.6199 29.4001 50.8618C28.6538 51.0661 27.8211 51.0661 26.1556 51.0661V51.0554ZM44.0433 51.0554H54.1931C55.6909 51.0554 56.4425 51.0554 56.8913 50.7597C57.378 50.4479 57.6808 49.921 57.7079 49.3512C57.7349 48.8404 57.3726 48.2276 56.6696 47.0179C56.648 46.9749 56.621 46.9373 56.5939 46.8943L51.511 38.2496L51.4515 38.1528C50.7377 36.9539 50.3754 36.3464 49.9158 36.1099C49.4075 35.8518 48.8018 35.8518 48.2936 36.1099C47.8285 36.3518 47.45 36.9862 46.7038 38.2603L41.637 46.9051L41.6208 46.9373C40.88 48.2114 40.5069 48.8458 40.5339 49.3673C40.5718 49.9372 40.8638 50.464 41.3505 50.7758C41.7885 51.0608 42.5455 51.0608 44.0379 51.0608L44.0433 51.0554Z" fill="#3E389F"/>
</svg>
