<svg width="735" height="355" viewBox="0 0 735 355" fill="none" xmlns="http://www.w3.org/2000/svg">
<path d="M-721 -66L-260.091 408M-655.156 -66L-194.247 408M-622.234 -66L-161.325 408M-688.078 -66L-227.169 408M-589.312 -66L-128.403 408M-523.468 -66L-62.5584 408M-490.545 -66L-29.6364 408M-556.39 -66L-95.4805 408M-457.623 -66L3.28575 408M-391.779 -66L69.1299 408M-358.857 -66L102.052 408M-424.701 -66L36.2078 408M-325.935 -66L134.974 408M-260.091 -66L200.818 408M-227.169 -66L233.74 408M-293.013 -66L167.896 408M-194.247 -66L266.662 408M-128.403 -66L332.507 408M-95.4805 -66L365.429 408M-161.325 -66L299.584 408M-62.5584 -66L398.351 408M3.28575 -66L464.195 408M36.2078 -66L497.117 408M-29.6364 -66L431.273 408M69.1299 -66L530.039 408M134.974 -66L595.883 408M167.896 -66L628.805 408M102.052 -66L562.961 408M200.818 -66L661.727 408M266.662 -66L727.572 408M299.584 -66L760.494 408M233.74 -66L694.649 408M332.507 -66L793.416 408M398.351 -66L859.26 408M431.273 -66L892.182 408M365.429 -66L826.338 408M464.195 -66L925.104 408M530.039 -66L990.948 408M562.961 -66L1023.87 408M497.117 -66L958.026 408M595.883 -66L1056.79 408M661.727 -66L1122.64 408M694.649 -66L1155.56 408M628.805 -66L1089.71 408M727.572 -66L1188.48 408M793.416 -66L1254.32 408M826.338 -66L1287.25 408M760.494 -66L1221.4 408M859.26 -66L1320.17 408M925.104 -66L1386.01 408M958.026 -66L1418.94 408M892.182 -66L1353.09 408M990.948 -66L1451.86 408M1056.79 -66L1517.7 408M1089.71 -66L1550.62 408M1023.87 -66L1484.78 408M1122.64 -66L1583.55 408M1188.48 -66L1649.39 408M1221.4 -66L1682.31 408M1155.56 -66L1616.47 408M1254.32 -66L1715.23 408M1320.17 -66L1781.08 408M1353.09 -66L1814 408M1287.25 -66L1748.16 408" stroke="#3E389F" stroke-width="3"/>
</svg>
